<svg width="160" height="56" viewBox="0 0 160 56" fill="none" xmlns="http://www.w3.org/2000/svg">
<path d="M15.5865 1.86458L2.86412 10.1227C2.62354 10.2789 2.42628 10.496 2.29134 10.7531C2.15641 11.0102 2.08836 11.2986 2.09377 11.5905C2.09918 11.8824 2.17788 12.168 2.32225 12.4196C2.46661 12.6713 2.67179 12.8805 2.91798 13.0272L16.0611 20.8425C16.3276 21.0008 16.6319 21.0799 16.9397 21.0708C17.2476 21.0617 17.5469 20.9648 17.8041 20.791L25.914 15.3069C26.0956 15.1841 26.2518 15.0258 26.3737 14.8411C26.4957 14.6564 26.5809 14.4488 26.6246 14.2303C26.6684 14.0118 26.6697 13.7867 26.6285 13.5676C26.5874 13.3486 26.5046 13.14 26.3848 12.9538C26.2651 12.7676 26.1107 12.6074 25.9306 12.4824C25.7505 12.3573 25.5481 12.2699 25.335 12.2251C25.1219 12.1803 24.9023 12.1789 24.6887 12.2211C24.4751 12.2633 24.2717 12.3482 24.0901 12.471L16.8365 17.3771L6.93809 11.494L17.3519 4.73285C18.5432 3.95293 19.9083 3.49628 21.3189 3.40583C22.7296 3.31538 24.1395 3.5941 25.4162 4.21577L37.1924 10.4417L17.3389 24.383L10.3332 20.6092C9.25156 20.0044 8.03324 19.7037 6.80172 19.7373C5.57019 19.771 4.36923 20.138 3.32056 20.801C2.2719 21.464 1.4128 22.3995 0.830345 23.5127C0.247888 24.6259 -0.03723 25.8773 0.00389538 27.1399V42.7486C0.00371189 43.0627 0.0885117 43.3707 0.248852 43.6384C0.409192 43.906 0.638784 44.1228 0.912106 44.2646L23.1624 55.8167C23.4178 55.9493 23.7023 56.0118 23.9883 55.9981C24.2742 55.9845 24.5518 55.895 24.794 55.7386L45.5195 42.3534C45.7565 42.2003 45.9518 41.9881 46.0873 41.7367C46.2227 41.4853 46.2938 41.2027 46.294 40.9155V15.7697C46.2939 15.466 46.2145 15.1678 46.0639 14.9062C45.9132 14.6447 45.697 14.4293 45.4376 14.2826C45.1783 14.1359 44.8853 14.0631 44.5892 14.0719C44.2931 14.0807 44.0048 14.1708 43.7542 14.3327L22.2273 28.254C21.4546 28.7397 21.5252 30.1814 21.5289 30.1909L21.554 41.1516C21.554 42.9191 24.8683 42.7705 24.8683 41.1516L24.8553 30.5633L42.9815 18.8427V39.9803L23.8218 52.3532L3.31637 41.7049V27.1094C3.31637 27.0875 3.31637 27.0656 3.31637 27.0437C3.29144 26.376 3.44008 25.7136 3.74705 25.1242C4.05402 24.5349 4.50828 24.0398 5.06329 23.6898C5.61829 23.3398 6.25407 23.1474 6.90547 23.1323C7.55687 23.1173 8.20047 23.2801 8.77029 23.6041L16.6823 27.8665C16.9489 28.01 17.2485 28.0764 17.5491 28.0584C17.8497 28.0405 18.1398 27.9389 18.3883 27.7645L41.3564 11.6416C41.5928 11.4755 41.7832 11.2493 41.9089 10.9852C42.0346 10.7211 42.0914 10.428 42.0736 10.1347C42.0558 9.84137 41.9641 9.55779 41.8075 9.31166C41.6509 9.06554 41.4347 8.8653 41.18 8.7305L26.9095 1.18658C25.3458 0.401154 23.6268 -0.00483069 21.8855 4.33727e-05C19.6558 0.000849826 17.4717 0.647499 15.5847 1.86553" fill="#00B0DF"/>
<path d="M57.4304 39.3081V45.3684H56.668V39.3081H57.4304Z" fill="white"/>
<path d="M73.5389 24.4771C73.5747 25.5702 73.3256 26.6533 72.8173 27.6148C72.3514 28.4462 71.6944 29.1481 70.9034 29.6594C70.0687 30.1899 69.1496 30.5658 68.188 30.7697C67.1616 30.9959 66.1147 31.1089 65.0649 31.1068H56.2148V8.3208H65.0649C65.9503 8.32386 66.8333 8.41538 67.7013 8.59409C68.5622 8.76238 69.3894 9.07786 70.1484 9.52733C70.9438 9.98801 71.5976 10.6678 72.0358 11.4897C72.474 12.3117 72.6791 13.243 72.6279 14.1782C72.6702 15.3137 72.314 16.427 71.624 17.316C70.9304 18.1582 70.0152 18.7781 68.9875 19.1015V19.1663C69.6051 19.2706 70.2033 19.4716 70.7613 19.7624C71.612 20.1981 72.3246 20.8724 72.8163 21.707C73.308 22.5416 73.5585 23.5022 73.5389 24.4771V24.4771ZM67.4497 14.9163C67.4719 14.5805 67.4031 14.2449 67.2508 13.9467C67.0985 13.6486 66.8688 13.3995 66.587 13.2269C65.7943 12.8228 64.9121 12.6392 64.0285 12.6946H61.3921V17.3922H64.2784C65.103 17.4432 65.9221 17.2234 66.6167 16.7646C66.8943 16.5511 67.116 16.2703 67.2618 15.9474C67.4077 15.6245 67.4732 15.2696 67.4525 14.9143L67.4497 14.9163ZM68.174 23.9609C68.2094 23.5656 68.13 23.1683 67.9458 22.8191C67.7615 22.4699 67.4807 22.1843 67.1386 21.9983C66.2721 21.5967 65.3258 21.4095 64.3758 21.4517H61.3939V26.6645H64.4065C64.8421 26.663 65.2769 26.6254 65.7066 26.5521C66.1328 26.485 66.5459 26.349 66.9306 26.1493C67.3252 25.9508 67.6536 25.6368 67.8743 25.2469C68.095 24.8571 68.198 24.4089 68.1703 23.9591" fill="white"/>
<path d="M97.827 19.6491C97.8723 21.4349 97.5011 23.2061 96.7442 24.8151C96.0652 26.2101 95.0894 27.4308 93.8886 28.3871C92.6941 29.3274 91.3361 30.0264 89.8871 30.4469C88.4187 30.8841 86.8973 31.106 85.3683 31.1059H77.082V8.3208H85.1167C86.6806 8.32013 88.2392 8.50904 89.7599 8.8836C91.2243 9.23073 92.6096 9.86482 93.8394 10.751C95.0634 11.6576 96.0542 12.8557 96.7266 14.242C97.5073 15.929 97.8839 17.7827 97.8251 19.6491H97.827ZM92.2384 19.6491C92.2756 18.5476 92.0662 17.4521 91.6265 16.4466C91.2534 15.6432 90.6926 14.9468 89.9939 14.4192C89.2964 13.9072 88.5076 13.541 87.6723 13.3412C86.7936 13.1255 85.893 13.0174 84.9894 13.0193H82.3214V26.3435H84.8641C85.7999 26.3467 86.7325 26.2331 87.6416 26.0055C88.4904 25.7991 89.2906 25.4216 89.9957 24.8951C90.6946 24.3551 91.2541 23.6479 91.6255 22.8354C92.0623 21.8345 92.2715 20.745 92.2375 19.6491" fill="white"/>
<path d="M115.686 31.1061L113.959 26.6304H105.36L103.727 31.1061H97.8906L107.212 8.32007H112.422L121.649 31.1061H115.686ZM109.723 14.4032L106.898 22.2242H112.484L109.723 14.4032Z" fill="white"/>
<path d="M131.125 13.0186V31.1042H125.758V13.0186H119.484V8.32007H137.407V13.0186H131.125Z" fill="white"/>
<path d="M153.03 31.1061L151.304 26.6304H142.704L141.072 31.1061H135.234L144.555 8.32007H149.765L158.992 31.1061H153.03ZM147.066 14.4032L144.241 22.2242H149.828L147.066 14.4032Z" fill="white"/>
<path d="M63.6313 41.1002C63.9849 41.5218 64.1627 42.069 64.1263 42.6238V45.3654H63.3638V42.6914C63.3894 42.2972 63.263 41.9083 63.0119 41.6087C62.8876 41.4799 62.7383 41.3795 62.5737 41.3138C62.409 41.2482 62.2327 41.2189 62.0563 41.2278C61.8693 41.2193 61.6827 41.2522 61.5092 41.3241C61.3357 41.3961 61.1792 41.5055 61.0505 41.6449C60.778 41.986 60.6431 42.4211 60.6735 42.8609V45.3626H59.9102V40.6431H60.6707V41.7601C60.7716 41.399 60.9928 41.0856 61.2957 40.8745C61.6021 40.6655 61.9633 40.5576 62.3312 40.565C62.5724 40.5555 62.8128 40.5983 63.0368 40.6905C63.2609 40.7827 63.4634 40.9223 63.6313 41.1002Z" fill="white"/>
<path d="M70.2844 41.1001C70.6377 41.5219 70.8151 42.0691 70.7785 42.6238V45.3654H70.0161V42.6914C70.0417 42.2971 69.9153 41.9083 69.6641 41.6086C69.5398 41.4799 69.3905 41.3795 69.2259 41.3139C69.0613 41.2483 68.885 41.2189 68.7086 41.2277C68.5214 41.2193 68.3347 41.2521 68.161 41.3241C67.9874 41.396 67.8308 41.5054 67.7019 41.6449C67.4294 41.986 67.2945 42.421 67.3249 42.8609V45.3625H66.5625V40.6431H67.3249V41.7601C67.4259 41.399 67.6471 41.0857 67.9499 40.8744C68.2562 40.6655 68.6175 40.5575 68.9853 40.565C69.2264 40.5556 69.4666 40.5985 69.6904 40.6907C69.9143 40.7829 70.1167 40.9224 70.2844 41.1001V41.1001Z" fill="white"/>
<path d="M76.4851 40.8811C76.833 41.0739 77.1186 41.3665 77.307 41.723C77.5126 42.1197 77.6153 42.5641 77.6051 43.0133C77.6155 43.4607 77.5128 43.9033 77.307 44.2979C77.1177 44.6527 76.8322 44.9438 76.4851 45.1359C76.1178 45.3281 75.7112 45.4283 75.2988 45.4283C74.8864 45.4283 74.4798 45.3281 74.1125 45.1359C73.765 44.9429 73.4786 44.6522 73.2869 44.2979C73.0789 43.904 72.9748 43.4612 72.9851 43.0133C72.9748 42.5636 73.0788 42.1189 73.2869 41.723C73.4776 41.3669 73.7642 41.0747 74.1125 40.8811C74.4798 40.6887 74.8863 40.5884 75.2988 40.5884C75.7112 40.5884 76.1178 40.6887 76.4851 40.8811V40.8811ZM74.5406 41.4658C74.3038 41.5999 74.1102 41.8017 73.9834 42.0467C73.8429 42.3472 73.77 42.6762 73.77 43.0095C73.77 43.3427 73.8429 43.6717 73.9834 43.9722C74.1103 44.2169 74.3039 44.4184 74.5406 44.5522C74.7751 44.6765 75.0352 44.7414 75.2992 44.7414C75.5633 44.7414 75.8234 44.6765 76.058 44.5522C76.2946 44.4184 76.4882 44.2169 76.6151 43.9722C76.7556 43.6717 76.8285 43.3427 76.8285 43.0095C76.8285 42.6762 76.7556 42.3472 76.6151 42.0467C76.4883 41.8017 76.2947 41.5999 76.058 41.4658C75.8234 41.3417 75.5632 41.277 75.2992 41.277C75.0353 41.277 74.7751 41.3417 74.5406 41.4658V41.4658Z" fill="white"/>
<path d="M81.6372 44.5349L83.0627 40.6497H83.8845L82.082 45.3691H81.1766L79.375 40.6497H80.1959L81.6372 44.5349Z" fill="white"/>
<path d="M88.9124 40.9326C89.2206 41.1589 89.4487 41.4817 89.5624 41.8525V40.6488H90.3258V45.3683H89.5624V44.1646C89.4487 44.5354 89.2206 44.8582 88.9124 45.0845C88.5794 45.3208 88.1813 45.4413 87.7766 45.4283C87.3943 45.435 87.0175 45.3339 86.6873 45.1359C86.3642 44.936 86.1037 44.6452 85.937 44.2979C85.7475 43.8982 85.6542 43.4577 85.6649 43.0133C85.6544 42.5672 85.7477 42.1248 85.937 41.723C86.1028 41.3741 86.3634 41.0818 86.6873 40.8812C87.0174 40.6831 87.3942 40.582 87.7766 40.5888C88.1813 40.5758 88.5794 40.6963 88.9124 40.9326V40.9326ZM86.8693 41.7449C86.5949 42.1076 86.4459 42.5537 86.4459 43.0128C86.4459 43.472 86.5949 43.9181 86.8693 44.2808C87.0148 44.4349 87.1905 44.5556 87.3849 44.6349C87.5792 44.7142 87.7878 44.7503 87.9967 44.7407C88.2804 44.7456 88.56 44.6712 88.8056 44.5255C89.0436 44.382 89.2369 44.1719 89.3628 43.9199C89.5015 43.6393 89.5708 43.3279 89.5643 43.0133C89.5705 42.6972 89.5013 42.3844 89.3628 42.102C89.2383 41.8489 89.0447 41.6385 88.8056 41.4963C88.559 41.3538 88.2798 41.2811 87.9967 41.2859C87.7874 41.2758 87.5783 41.3116 87.3835 41.3907C87.1886 41.4698 87.0124 41.5906 86.8666 41.7449H86.8693Z" fill="white"/>
<path d="M94.9937 44.6809V45.3684H94.4235C94.0425 45.3991 93.6648 45.2757 93.3714 45.0246C93.2413 44.8661 93.1434 44.6825 93.0836 44.4846C93.0238 44.2867 93.0032 44.0786 93.0231 43.8724V41.3279H92.3359V40.6489H93.0231V39.4719H93.7939V40.6499H94.9844V41.3288H93.7958V43.8905C93.7716 44.1118 93.83 44.3343 93.9592 44.5132C94.1194 44.6421 94.3222 44.7022 94.5247 44.6809H94.9937Z" fill="white"/>
<path d="M97.1925 38.9177C97.3002 38.8313 97.4329 38.7844 97.5695 38.7844C97.7062 38.7844 97.8389 38.8313 97.9466 38.9177C97.9917 38.9631 98.0275 39.0172 98.052 39.077C98.0765 39.1367 98.0891 39.2009 98.0891 39.2657C98.0891 39.3305 98.0765 39.3947 98.052 39.4545C98.0275 39.5142 97.9917 39.5684 97.9466 39.6138C97.8389 39.7001 97.7062 39.747 97.5695 39.747C97.4329 39.747 97.3002 39.7001 97.1925 39.6138C97.1476 39.5682 97.112 39.5141 97.0876 39.4543C97.0633 39.3946 97.0508 39.3304 97.0508 39.2657C97.0508 39.201 97.0633 39.1369 97.0876 39.0771C97.112 39.0174 97.1476 38.9632 97.1925 38.9177V38.9177ZM97.9466 40.6499V45.3693H97.1842V40.6499H97.9466Z" fill="white"/>
<path d="M104.151 41.1001C104.504 41.5217 104.682 42.0689 104.646 42.6237V45.3653H103.883V42.6914C103.909 42.2971 103.782 41.9083 103.531 41.6086C103.407 41.4799 103.258 41.3795 103.093 41.3138C102.928 41.2482 102.752 41.2189 102.576 41.2277C102.389 41.2192 102.202 41.2521 102.029 41.3241C101.855 41.396 101.699 41.5054 101.57 41.6448C101.297 41.9858 101.162 42.4209 101.192 42.8609V45.3625H100.43V40.643H101.192V41.76C101.293 41.399 101.514 41.0857 101.817 40.8744C102.123 40.6655 102.485 40.5575 102.852 40.5649C103.093 40.5557 103.333 40.5986 103.557 40.6908C103.781 40.783 103.983 40.9225 104.151 41.1001V41.1001Z" fill="white"/>
<path d="M110.099 40.9326C110.407 41.1589 110.635 41.4818 110.749 41.8525V40.6488H111.511V45.4436C111.519 45.8475 111.426 46.2467 111.243 46.6044C111.07 46.936 110.808 47.2101 110.488 47.3947C110.142 47.5903 109.751 47.6889 109.356 47.6804C108.814 47.7051 108.28 47.5436 107.839 47.2215C107.45 46.9171 107.186 46.4761 107.096 45.9835H107.85C107.929 46.2845 108.109 46.5475 108.358 46.7272C108.642 46.918 108.978 47.0126 109.317 46.9977C109.506 47.0039 109.695 46.971 109.871 46.9008C110.048 46.8306 110.208 46.7246 110.344 46.5891C110.485 46.4375 110.594 46.2578 110.664 46.0612C110.733 45.8646 110.763 45.6553 110.751 45.4464V44.1656C110.637 44.5364 110.409 44.8592 110.101 45.0855C109.768 45.3217 109.37 45.4422 108.965 45.4293C108.582 45.436 108.205 45.3349 107.875 45.1369C107.552 44.9369 107.291 44.6461 107.124 44.2989C106.935 43.8991 106.842 43.4586 106.852 43.0143C106.842 42.5682 106.935 42.1259 107.124 41.724C107.29 41.3751 107.551 41.0828 107.875 40.8821C108.205 40.684 108.582 40.5829 108.965 40.5898C109.369 40.577 109.766 40.6971 110.099 40.9326V40.9326ZM108.056 41.7449C107.781 42.1077 107.632 42.5537 107.632 43.0129C107.632 43.472 107.781 43.9181 108.056 44.2808C108.201 44.435 108.377 44.5557 108.571 44.635C108.766 44.7143 108.974 44.7504 109.183 44.7408C109.467 44.7457 109.747 44.6713 109.992 44.5255C110.23 44.382 110.423 44.1719 110.549 43.9199C110.688 43.6393 110.757 43.3279 110.751 43.0133C110.757 42.6973 110.688 42.3844 110.549 42.102C110.425 41.849 110.231 41.6385 109.992 41.4964C109.746 41.3536 109.466 41.281 109.183 41.2859C108.974 41.2759 108.765 41.3117 108.571 41.3908C108.376 41.47 108.2 41.5907 108.054 41.7449H108.056Z" fill="white"/>
<path d="M120.842 44.5979C120.698 44.8542 120.486 45.0631 120.23 45.1997C119.917 45.3641 119.568 45.4441 119.216 45.4321C118.857 45.4388 118.5 45.3637 118.172 45.2121C117.883 45.0789 117.632 44.8717 117.443 44.6103C117.261 44.3551 117.152 44.0531 117.129 43.738H117.942C117.962 43.9266 118.026 44.1076 118.129 44.2654C118.232 44.4232 118.37 44.5533 118.533 44.6445C118.735 44.7559 118.962 44.8107 119.191 44.8036C119.331 44.8133 119.471 44.7939 119.604 44.7466C119.736 44.6993 119.858 44.6251 119.962 44.5284C120.051 44.4359 120.121 44.3257 120.167 44.2045C120.213 44.0833 120.235 43.9537 120.23 43.8237C120.24 43.6068 120.174 43.3933 120.044 43.2218C119.918 43.0664 119.759 42.9415 119.58 42.8562C119.335 42.7448 119.082 42.6494 118.825 42.5705C118.518 42.4714 118.217 42.3525 117.924 42.2143C117.694 42.0989 117.495 41.926 117.346 41.7115C117.176 41.4501 117.092 41.1397 117.107 40.8259C117.101 40.5319 117.179 40.2426 117.33 39.9927C117.484 39.7461 117.706 39.5516 117.967 39.4337C118.275 39.2952 118.608 39.2276 118.944 39.2356C119.441 39.2079 119.931 39.3618 120.328 39.6699C120.66 39.9433 120.874 40.3403 120.923 40.7745H120.099C120.051 40.5275 119.924 40.3039 119.739 40.1384C119.518 39.9453 119.232 39.8468 118.942 39.8632C118.675 39.8493 118.413 39.9364 118.205 40.1079C118.046 40.2732 117.95 40.4909 117.933 40.7223C117.916 40.9536 117.979 41.1837 118.112 41.3716C118.234 41.5195 118.388 41.637 118.56 41.7153C118.801 41.8222 119.047 41.9153 119.298 41.9943C119.611 42.0941 119.918 42.2147 120.216 42.3553C120.453 42.4742 120.656 42.6532 120.807 42.8752C120.981 43.1492 121.066 43.4725 121.05 43.7989C121.05 44.0793 120.978 44.3546 120.842 44.5979V44.5979Z" fill="white"/>
<path d="M127.53 43.1764H123.85C123.841 43.3991 123.876 43.6212 123.953 43.8295C124.031 44.0379 124.148 44.2281 124.299 44.3887C124.579 44.6573 124.951 44.8023 125.334 44.7924C125.666 44.8057 125.993 44.7052 126.263 44.5068C126.507 44.3216 126.671 44.0453 126.719 43.7373H127.533C127.48 44.0602 127.35 44.3645 127.154 44.6227C126.958 44.8809 126.702 45.0849 126.409 45.2162C126.082 45.3638 125.728 45.4372 125.37 45.4314C124.961 45.4395 124.557 45.3388 124.196 45.1391C123.856 44.9451 123.578 44.654 123.396 44.3011C123.195 43.9047 123.096 43.4628 123.106 43.0164C123.096 42.5682 123.196 42.1246 123.396 41.7261C123.577 41.3715 123.855 41.0789 124.196 40.8843C124.556 40.6845 124.961 40.5837 125.37 40.592C125.778 40.5822 126.182 40.683 126.54 40.8843C126.861 41.0668 127.125 41.3376 127.303 41.6661C127.48 41.9979 127.57 42.3707 127.566 42.7488C127.567 42.8922 127.555 43.0353 127.53 43.1764ZM126.625 41.9213C126.505 41.6956 126.32 41.5129 126.096 41.3976C125.87 41.2824 125.62 41.2237 125.367 41.2262C124.978 41.2147 124.6 41.3581 124.312 41.6261C124.161 41.7793 124.042 41.9622 123.962 42.1639C123.882 42.3656 123.843 42.5817 123.847 42.7993H126.789C126.817 42.4963 126.76 42.1915 126.625 41.9204V41.9213Z" fill="white"/>
<path d="M133.311 41.0709C133.698 41.394 133.953 41.8541 134.025 42.3603H133.22C133.176 42.0437 133.011 41.7579 132.763 41.5651C132.492 41.3672 132.166 41.2667 131.834 41.2794C131.578 41.2769 131.325 41.3425 131.1 41.4699C130.871 41.6055 130.686 41.8076 130.568 42.0508C130.436 42.3548 130.367 42.6842 130.367 43.0173C130.367 43.3505 130.436 43.6798 130.568 43.9839C130.686 44.2271 130.871 44.4292 131.1 44.5648C131.36 44.7046 131.652 44.7689 131.944 44.7507C132.237 44.7326 132.519 44.6327 132.76 44.4619C133.008 44.2669 133.172 43.9797 133.217 43.662H134.022C133.952 44.1703 133.697 44.6327 133.309 44.9562C132.892 45.2846 132.376 45.453 131.851 45.4323C131.441 45.4403 131.037 45.3396 130.677 45.14C130.337 44.9457 130.059 44.6547 129.876 44.302C129.676 43.9055 129.576 43.4637 129.587 43.0173C129.577 42.5692 129.676 42.1255 129.876 41.727C130.058 41.3726 130.336 41.08 130.677 40.8852C131.038 40.6826 131.444 40.5799 131.855 40.5871C132.381 40.568 132.897 40.7393 133.311 41.0709V41.0709Z" fill="white"/>
<path d="M140.371 40.6499V45.3694H139.608V44.2609C139.507 44.621 139.286 44.933 138.983 45.1418C138.672 45.3485 138.309 45.4547 137.939 45.4465C137.7 45.4562 137.461 45.4141 137.239 45.3231C137.016 45.232 136.815 45.094 136.648 44.918C136.295 44.4988 136.117 43.9538 136.153 43.401V40.6508H136.915V43.3239C136.89 43.7195 137.017 44.1096 137.267 44.4114C137.391 44.5405 137.541 44.6412 137.705 44.7068C137.87 44.7725 138.047 44.8016 138.223 44.7923C138.41 44.8007 138.596 44.768 138.77 44.6962C138.943 44.6244 139.1 44.5152 139.229 44.3761C139.501 44.0346 139.636 43.5993 139.606 43.1591V40.6489L140.371 40.6499Z" fill="white"/>
<path d="M144.281 40.8423C144.596 40.6551 144.956 40.5615 145.32 40.5718V41.4222H145.085C144.705 41.4057 144.332 41.5256 144.029 41.7612C143.882 41.9036 143.768 42.0788 143.697 42.2732C143.626 42.4677 143.599 42.6763 143.619 42.883V45.3675H142.855V40.648H143.619V41.6003C143.761 41.2854 143.991 41.0214 144.281 40.8423Z" fill="white"/>
<path d="M147.337 38.9175C147.445 38.8311 147.578 38.7842 147.715 38.7842C147.852 38.7842 147.984 38.8311 148.092 38.9175C148.137 38.9629 148.173 39.0171 148.198 39.0769C148.222 39.1366 148.235 39.2008 148.235 39.2656C148.235 39.3304 148.222 39.3946 148.198 39.4543C148.173 39.5141 148.137 39.5683 148.092 39.6136C147.984 39.7001 147.852 39.747 147.715 39.747C147.578 39.747 147.445 39.7001 147.337 39.6136C147.292 39.5682 147.257 39.514 147.232 39.4543C147.208 39.3945 147.195 39.3304 147.195 39.2656C147.195 39.2008 147.208 39.1367 147.232 39.0769C147.257 39.0172 147.292 38.963 147.337 38.9175V38.9175ZM148.092 40.6497V45.3692H147.33V40.6497H148.092Z" fill="white"/>
<path d="M152.77 44.6809V45.3684H152.2C151.819 45.399 151.441 45.2756 151.148 45.0246C151.018 44.866 150.92 44.6824 150.861 44.4845C150.801 44.2866 150.78 44.0785 150.8 43.8724V41.3279H150.113V40.6489H150.8V39.4719H151.571V40.6499H152.762V41.3288H151.575V43.8905C151.551 44.1118 151.609 44.3342 151.738 44.5132C151.899 44.6423 152.102 44.7024 152.305 44.6809H152.77Z" fill="white"/>
<path d="M155.28 40.6498L156.772 44.3637L158.156 40.6498H159.002L156.27 47.6014H155.406L156.362 45.2893L154.426 40.647L155.28 40.6498Z" fill="white"/>
</svg>
