<svg width="151" height="48" viewBox="0 0 151 48" fill="none" xmlns="http://www.w3.org/2000/svg">
<path d="M70.4042 27.9999C70.4042 29.1033 70.1085 29.9309 69.6648 30.7585C69.2212 31.4482 68.6296 31.9999 67.8902 32.5516C67.1508 32.9654 66.2635 33.2413 65.3762 33.5171C64.4889 33.6551 63.4538 33.793 62.4186 33.793H54.1372V14.0688H62.4186C63.158 14.0688 64.0453 14.2068 64.9326 14.3447C65.8199 14.4826 66.5593 14.7585 67.2987 15.1723C68.0381 15.5861 68.4818 15.9999 68.9254 16.6895C69.3691 17.3792 69.5169 18.2068 69.5169 19.1723C69.5169 20.2757 69.2212 21.1033 68.6296 21.9309C68.0381 22.6206 67.1508 23.1723 66.1156 23.4482C66.7072 23.5861 67.2987 23.724 67.7423 23.9999C68.3339 24.2757 68.7775 24.5516 69.0733 24.9654C69.5169 25.3792 69.8127 25.793 69.9606 26.3447C70.2563 26.7585 70.4042 27.3102 70.4042 27.9999ZM64.6368 19.724C64.6368 19.0344 64.3411 18.6206 63.8974 18.2068C63.3059 17.9309 62.5665 17.793 61.5313 17.793H59.0173V21.793H61.6792C62.5665 21.793 63.3059 21.6551 63.8974 21.2413C64.3411 20.9654 64.6368 20.4137 64.6368 19.724ZM65.3762 27.4482C65.3762 26.6206 65.0805 26.0689 64.3411 25.793C63.7495 25.5171 62.8622 25.3792 61.6792 25.3792H58.8694V29.793H61.6792C62.1228 29.793 62.4186 29.793 62.8622 29.6551C63.3059 29.6551 63.6017 29.5171 64.0453 29.2413C64.3411 29.1033 64.6368 28.8275 64.9326 28.5516C65.2284 28.4137 65.3762 27.9999 65.3762 27.4482Z" fill="white"/>
<path d="M93.326 23.862C93.326 25.5171 93.0303 27.0344 92.2908 28.2757C91.5514 29.5171 90.6641 30.4826 89.629 31.3102C88.4459 32.1378 87.2629 32.6895 85.784 33.1033C84.4531 33.5171 82.9743 33.6551 81.4955 33.6551H73.6577V14.0688H81.1997C82.6785 14.0688 84.1573 14.2068 85.6362 14.4826C87.115 14.7585 88.298 15.3102 89.4811 16.1378C90.6641 16.8275 91.5514 17.9309 92.143 19.1723C93.0303 20.4137 93.326 21.9309 93.326 23.862ZM88.0023 23.862C88.0023 22.7585 87.8544 21.793 87.4107 21.1033C86.9671 20.4137 86.5235 19.862 85.9319 19.3102C85.3404 18.8964 84.601 18.6206 83.7137 18.3447C82.8264 18.2068 82.087 18.0688 81.1997 18.0688H78.6857V29.5171H81.0518C81.9391 29.5171 82.8264 29.3792 83.7137 29.2413C84.601 29.1033 85.3404 28.6895 85.9319 28.2757C86.5235 27.862 87.115 27.3102 87.4107 26.4826C87.8544 25.793 88.0023 24.9654 88.0023 23.862Z" fill="white"/>
<path d="M110.185 33.6551L108.558 29.793H100.424L98.9455 33.6551H93.4739L102.199 14.0688H107.079L115.804 33.6551H110.185ZM104.565 19.3102L101.903 26.0688H107.227L104.565 19.3102Z" fill="white"/>
<path d="M124.677 18.0688V33.6551H119.649V18.0688H113.734V14.0688H130.592V18.0688H124.677Z" fill="white"/>
<path d="M145.381 33.6551L143.754 29.793H135.62L134.142 33.6551H128.67L137.395 14.0688H142.275L151 33.6551H145.381ZM139.761 19.3102L137.099 26.0688H142.275L139.761 19.3102Z" fill="white"/>
<path d="M14.9485 1.65517L2.97004 8.68966C2.5264 8.96552 2.23063 9.37931 2.23063 9.93103C2.23063 10.4828 2.5264 10.8966 2.97004 11.1724L15.3921 17.931C15.8358 18.2069 16.5752 18.2069 17.0188 17.931L24.7087 13.2414C25.4481 12.8276 25.596 11.8621 25.1523 11.1724C24.7087 10.4828 23.6735 10.3448 22.9341 10.7586L16.1315 14.8966L6.81497 9.7931L16.5752 4C18.9413 2.62069 21.7511 2.48276 24.1172 3.58621L35.2083 8.96552L16.4273 20.9655L9.77262 17.7931C7.70227 16.6897 5.18827 16.8276 3.11792 17.931C1.04758 19.1724 -0.135481 21.1034 0.0124007 23.3103V36.6897C0.0124007 37.2414 0.308165 37.7931 0.899693 37.931L21.8989 47.8621C22.1947 48 22.3426 48 22.6384 48C22.9341 48 23.2299 47.8621 23.5256 47.7241L43.194 36.2759C43.6376 36 43.9334 35.5862 43.9334 35.0345V13.5172C43.9334 12.9655 43.6376 12.5517 43.194 12.2759C42.7503 12 42.1588 12 41.5673 12.2759L21.3074 24.2759C20.568 24.6897 20.7159 25.931 20.7159 25.931V35.3103C20.7159 36.8276 23.8214 36.6897 23.8214 35.3103V26.2069L40.9757 16.1379V34.2069L22.9341 44.8276L3.41369 35.7241V23.1724C3.41369 21.931 4.00522 20.9655 5.04039 20.2759C6.07556 19.7241 7.4065 19.5862 8.58956 20.1379L15.9837 23.7241C16.4273 24 17.1667 24 17.6104 23.5862L39.2011 9.7931C39.6448 9.51724 39.9406 8.96552 39.9406 8.55172C39.9406 8 39.6448 7.58621 39.0533 7.31035L25.596 0.827586C24.2651 0.275862 22.6384 0 21.0117 0C18.9413 0 16.871 0.551724 14.9485 1.65517Z" fill="#5AAEDD"/>
</svg>
