<svg width="18" height="18" viewBox="0 0 18 18" fill="none" xmlns="http://www.w3.org/2000/svg">
<path fill-rule="evenodd" clip-rule="evenodd" d="M8.99984 0.667969C13.6022 0.667969 17.3332 4.39893 17.3332 9.0013C17.3332 13.6037 13.6022 17.3346 8.99984 17.3346C4.39746 17.3346 0.666504 13.6037 0.666504 9.0013C0.666504 4.39893 4.39746 0.667969 8.99984 0.667969ZM8.99967 2.33594C5.31778 2.33594 2.33301 5.32071 2.33301 9.0026C2.33301 12.6845 5.31778 15.6693 8.99967 15.6693C12.6816 15.6693 15.6663 12.6845 15.6663 9.0026C15.6663 5.32071 12.6816 2.33594 8.99967 2.33594ZM10.025 10.0265V3.63259H8.35832L8.35817 9.19297L4.92908 9.19312V10.8598H9.19165L9.28884 10.8542C9.70329 10.806 10.025 10.4538 10.025 10.0265Z" fill="black"/>
</svg>
