<svg width="15" height="18" viewBox="0 0 15 18" fill="none" xmlns="http://www.w3.org/2000/svg">
<path fill-rule="evenodd" clip-rule="evenodd" d="M12.223 1.68266C9.26087 -0.733839 4.95543 -0.531866 2.21986 2.18734L2.01804 2.39349L1.8562 2.57113C-0.731644 5.50375 -0.60576 9.94129 2.18481 12.7152L7.50144 18L12.8181 12.7152L12.9833 12.5457C15.7376 9.63149 15.6704 5.05748 12.783 2.18734L12.6069 2.01789L12.4167 1.84621L12.223 1.68266ZM3.5532 3.18178C5.73013 1.17019 9.06313 1.10385 11.3187 3.06494L11.4786 3.20885L11.6248 3.35007L11.7777 3.50766L11.9235 3.66934C13.9148 5.96066 13.8246 9.39876 11.6501 11.5602L7.50161 15.6828L3.35294 11.5602L3.20153 11.4041C1.13097 9.18808 1.12522 5.7397 3.21351 3.51871L3.39601 3.33244L3.5532 3.18178ZM7.50133 4.875C8.92541 4.875 10.0788 6.02153 10.0788 7.43462C10.0788 8.8477 8.92541 9.99423 7.50133 9.99423C6.07726 9.99423 4.92383 8.8477 4.92383 7.43462C4.92383 6.02153 6.07726 4.875 7.50133 4.875ZM6.57324 7.43286C6.57324 6.92142 6.98934 6.50781 7.50137 6.50781C8.0134 6.50781 8.4295 6.92142 8.4295 7.43286C8.4295 7.94431 8.0134 8.35792 7.50137 8.35792C6.98934 8.35792 6.57324 7.94431 6.57324 7.43286Z" fill="black"/>
</svg>
