<svg fill="none" xmlns="http://www.w3.org/2000/svg" viewBox="0 0 400 79"><g clip-path="url(#logoclip0)"><path d="M53.95 47.932l1.531 5.133 5.372-.107-4.315 3.041 1.748 5.07-4.315-3.258-4.314 3.258 1.79-5.07-4.314-3.041 5.35.108 1.467-5.134zm-13.417 23.47l7.765-6.666-4.443-5.178-8.154 6.903-8.456-17.257 31.925-7.507V22.111l-38.828-9.233a32.357 32.357 0 1120.212 58.523h-.021zM6.838 39.043a32.163 32.163 0 017.507-20.665l38.03 9.038v8.93l-35.032 8.306 12.533 25.41A32.357 32.357 0 016.816 39.13l.022-.086zM39.174 0A39.13 39.13 0 1078.26 39.13 39.173 39.173 0 0039.13 0" fill="#34CDD7"/><path d="M123.391 27.198a19.81 19.81 0 00-7.767-1.996c-2.408 0-5.728.673-5.728 4.34 0 2.45 2.647 3.774 6.032 5.422 5.576 2.712 10.588 5.315 10.588 12.366 0 9.068-6.141 11.823-12.628 11.823a34.33 34.33 0 01-12.584-2.3l1.888-6.898a26.707 26.707 0 0010.284 2.56c2.408 0 5.272-1.02 5.272-4.665 0-2.69-2.169-4.338-7.16-6.638-5.424-2.408-9.221-4.707-9.221-11.215 0-9.198 7.464-11.411 12.432-11.411a27.215 27.215 0 0110.632 1.996l-2.04 6.616zM145.695 38.674c0 10.37 4.513 14.058 10.544 14.058 6.032 0 10.588-3.688 10.588-14.058 0-9.762-4.035-13.688-10.544-13.688s-10.588 3.948-10.588 13.688zm-8.071 0c0-9.523 4.339-20.413 18.615-20.413 14.277 0 18.681 10.846 18.681 20.457 0 9.61-4.187 20.847-18.637 20.847-13.908 0-18.659-10.434-18.659-20.76v-.13zM204.949 31.082c0-4.556-3.537-5.424-8.202-5.424h-3.363v11.368h6.509a5.492 5.492 0 004.776-3.811 5.464 5.464 0 00.236-2.133h.044zm-.825 17.355c-1.844-4.1-3.167-5.424-5.988-5.424h-4.752v15.49h-7.159V19.258h9.72c9.09 0 16.467 1.605 16.467 10.955a9.28 9.28 0 01-6.509 9.762 8.22 8.22 0 014.144 4.209c1.476 3.015 4.709 10.174 6.509 14.36h-8.288c-.868-2.646-2.755-7.202-4.1-10.13M271.188 39.326c0-10.5 3.883-20.826 19.7-20.826 2.998.039 5.983.417 8.896 1.128l-1.215 6.855a23.699 23.699 0 00-7.529-1.236c-7.984 0-11.716 5.12-11.716 14.23 0 8.678 4.339 13.017 11.911 13.017a28.202 28.202 0 007.941-1.215l.76 6.942a35.251 35.251 0 01-8.939 1.128c-15.665 0-19.809-9.567-19.809-19.893v-.13zM317.792 38.674c0 10.37 4.513 14.058 10.545 14.058 6.031 0 10.587-3.775 10.587-14.123 0-9.762-4.035-13.688-10.544-13.688s-10.588 3.926-10.588 13.688v.065zm-8.071 0c0-9.523 4.231-20.413 18.616-20.413 14.384 0 18.659 10.846 18.659 20.457 0 9.61-4.144 20.76-18.616 20.76-13.908 0-18.659-10.434-18.659-20.76v-.044zM381.645 56.876h-6.705l-9.351-28.353-1.085 30.024h-7.203l2.04-39.266h10.067l9.156 27.92 8.96-27.92h10.436L400 58.547h-7.659l-1.237-30.024-9.459 28.353zM247.105 39.868l2.17 5.922-5.012-3.796-5.012 3.796 2.169-5.922-5.163-3.58 6.075.217 1.8-6.03 1.823 6.03 6.27-.13-5.12 3.493zm.607-20.61h-7.051l-15.057 39.288h8.049l3.189-9.459h14.711l3.189 9.459h8.028l-15.058-39.287z" fill="#fff"/></g><defs><clipPath id="logoclip0"><path fill="#fff" d="M0 0h400v79H0z"/></clipPath></defs></svg>