<svg width="159" height="54" viewBox="0 0 159 54" fill="none" xmlns="http://www.w3.org/2000/svg">
<path d="M73.8186 31.5C73.8186 32.7414 73.5085 33.6724 73.0434 34.6035C72.5782 35.3793 71.958 36 71.1827 36.6207C70.4074 37.0862 69.4771 37.3966 68.5468 37.7069C67.6165 37.8621 66.5311 38.0172 65.4457 38.0172H56.7627V15.8276H65.4457C66.221 15.8276 67.1513 15.9828 68.0816 16.1379C69.012 16.2931 69.7872 16.6034 70.5625 17.069C71.3378 17.5345 71.8029 18 72.2681 18.7759C72.7332 19.5517 72.8883 20.4828 72.8883 21.569C72.8883 22.8103 72.5782 23.7414 71.958 24.6724C71.3378 25.4483 70.4074 26.069 69.3221 26.3793C69.9423 26.5345 70.5625 26.6897 71.0277 27C71.6479 27.3103 72.113 27.6207 72.4231 28.0862C72.8883 28.5517 73.1984 29.0172 73.3535 29.6379C73.6636 30.1035 73.8186 30.7241 73.8186 31.5ZM67.7715 22.1897C67.7715 21.4138 67.4614 20.9483 66.9963 20.4828C66.376 20.1724 65.6008 20.0172 64.5154 20.0172H61.8795V24.5172H64.6704C65.6008 24.5172 66.376 24.3621 66.9963 23.8966C67.4614 23.5862 67.7715 22.9655 67.7715 22.1897ZM68.5468 30.8793C68.5468 29.9483 68.2367 29.3276 67.4614 29.0172C66.8412 28.7069 65.9109 28.5517 64.6704 28.5517H61.7244V33.5172H64.6704C65.1356 33.5172 65.4457 33.5172 65.9109 33.3621C66.376 33.3621 66.6861 33.2069 67.1513 32.8966C67.4614 32.7414 67.7715 32.431 68.0816 32.1207C68.3917 31.9655 68.5468 31.5 68.5468 30.8793Z" fill="#373737"/>
<path d="M97.8521 26.8448C97.8521 28.7069 97.542 30.4138 96.7668 31.8103C95.9915 33.2069 95.0612 34.2931 93.9758 35.2241C92.7354 36.1552 91.4949 36.7759 89.9444 37.2414C88.5489 37.7069 86.9984 37.8621 85.4478 37.8621H77.23V15.8276H85.1377C86.6883 15.8276 88.2388 15.9828 89.7893 16.2931C91.3399 16.6034 92.5803 17.2241 93.8207 18.1552C95.0612 18.931 95.9915 20.1724 96.6117 21.569C97.542 22.9655 97.8521 24.6724 97.8521 26.8448ZM92.2702 26.8448C92.2702 25.6034 92.1152 24.5172 91.65 23.7414C91.1848 22.9655 90.7197 22.3448 90.0995 21.7241C89.4792 21.2586 88.704 20.9483 87.7736 20.6379C86.8433 20.4828 86.0681 20.3276 85.1377 20.3276H82.5018V33.2069H84.9827C85.913 33.2069 86.8433 33.0517 87.7736 32.8966C88.704 32.7414 89.4792 32.2759 90.0995 31.8103C90.7197 31.3448 91.3399 30.7241 91.65 29.7931C92.1152 29.0172 92.2702 28.0862 92.2702 26.8448Z" fill="#373737"/>
<path d="M115.528 37.8621L113.822 33.5172H105.294L103.744 37.8621H98.0068L107.155 15.8276H112.272L121.42 37.8621H115.528ZM109.636 21.7241L106.845 29.3276H112.427L109.636 21.7241Z" fill="#373737"/>
<path d="M130.724 20.3276V37.8621H125.452V20.3276H119.25V15.8276H136.926V20.3276H130.724Z" fill="#373737"/>
<path d="M152.431 37.8621L150.725 33.5172H142.197L140.647 37.8621H134.91L144.058 15.8276H149.175L158.323 37.8621H152.431V37.8621ZM146.539 21.7241L143.748 29.3276H149.175L146.539 21.7241Z" fill="#373737"/>
<path d="M15.6735 1.86207L3.11408 9.77586C2.64892 10.0862 2.33881 10.5517 2.33881 11.1724C2.33881 11.7931 2.64892 12.2586 3.11408 12.569L16.1386 20.1724C16.6038 20.4828 17.379 20.4828 17.8442 20.1724L25.907 14.8966C26.6823 14.431 26.8373 13.3448 26.3722 12.569C25.907 11.7931 24.8216 11.6379 24.0464 12.1034L16.9139 16.7586L7.14548 11.0172L17.379 4.5C19.8599 2.94828 22.8059 2.7931 25.2868 4.03448L36.9158 10.0862L17.224 23.5862L10.2466 20.0172C8.07581 18.7759 5.43989 18.931 3.26914 20.1724C1.09838 21.569 -0.142052 23.7414 0.0130021 26.2241V41.2759C0.0130021 41.8966 0.32311 42.5172 0.943326 42.6724L22.961 53.8448C23.2711 54 23.4261 54 23.7363 54C24.0464 54 24.3565 53.8448 24.6666 53.6897L45.2888 40.8103C45.7539 40.5 46.064 40.0345 46.064 39.4138V15.2069C46.064 14.5862 45.7539 14.1207 45.2888 13.8103C44.8236 13.5 44.2034 13.5 43.5832 13.8103L22.3408 27.3103C21.5655 27.7759 21.7206 29.1724 21.7206 29.1724V39.7241C21.7206 41.431 24.9767 41.2759 24.9767 39.7241V29.4828L42.9629 18.1552V38.4828L24.0464 50.431L3.57924 40.1897V26.069C3.57924 24.6724 4.19946 23.5862 5.28484 22.8103C6.37021 22.1897 7.7657 22.0345 9.00613 22.6552L16.7588 26.6897C17.224 27 17.9993 27 18.4644 26.5345L41.1023 11.0172C41.5675 10.7069 41.8776 10.0862 41.8776 9.62069C41.8776 9 41.5675 8.53448 40.9472 8.22414L26.8373 0.931035C25.4419 0.310345 23.7363 0 22.0307 0C19.8599 0 17.6892 0.62069 15.6735 1.86207Z" fill="#5AAEDD"/>
</svg>
